<svg width="135" height="88" viewBox="0 0 135 88" fill="none" xmlns="http://www.w3.org/2000/svg">
<path fill-rule="evenodd" clip-rule="evenodd" d="M47.0469 20C47.0469 8.95431 56.0012 0 67.0469 0H67.5469C78.3164 0 87.0469 8.73045 87.0469 19.5C87.0469 30.2696 78.3164 39 67.5469 39H60.0469V30.1792C61.9408 31.3344 64.1661 32 66.5469 32C73.4504 32 79.0469 26.4036 79.0469 19.5C79.0469 12.5964 73.4504 7 66.5469 7C60.151 7 54.877 11.8037 54.1359 18H54.0469V19.5V39H47.0469V20ZM66.5469 27C70.689 27 74.0469 23.6421 74.0469 19.5C74.0469 15.3579 70.689 12 66.5469 12C62.4047 12 59.0469 15.3579 59.0469 19.5C59.0469 23.6421 62.4047 27 66.5469 27ZM11.25 68.1758C13.0339 68.1758 14.5573 67.5443 15.8203 66.2812C17.0833 65.0182 17.7148 63.4948 17.7148 61.7109C17.7148 59.9141 17.0833 58.3841 15.8203 57.1211C14.5703 55.8711 13.0469 55.2461 11.25 55.2461C9.45312 55.2461 7.92318 55.8711 6.66016 57.1211C5.41016 58.3841 4.78516 59.9141 4.78516 61.7109C4.78516 63.4948 5.41016 65.0182 6.66016 66.2812C7.92318 67.5443 9.45312 68.1758 11.25 68.1758ZM2.36328 81.0273C1.72526 81.0273 1.17188 80.793 0.703125 80.3242C0.234375 79.8555 0 79.3021 0 78.6641V61.7109C0.0130208 58.599 1.11979 55.9557 3.32031 53.7812C5.50781 51.5938 8.15104 50.5 11.25 50.5C14.349 50.5 16.9987 51.6003 19.1992 53.8008C21.3997 56.0013 22.5 58.651 22.5 61.75C22.5 64.849 21.3997 67.4987 19.1992 69.6992C16.9987 71.8997 14.349 73 11.25 73C8.41146 73 6.25651 72.349 4.78516 71.0469V78.6641C4.78516 79.3021 4.55078 79.8555 4.08203 80.3242C3.61328 80.793 3.0599 81.0273 2.42188 81.0273H2.36328ZM37.0703 50.5C40.1693 50.5 42.819 51.6003 45.0195 53.8008C47.2201 56.0013 48.3203 58.651 48.3203 61.75V70.6367C48.3203 71.3008 48.0859 71.8542 47.6172 72.2969C47.1484 72.7656 46.5951 73 45.957 73H45.8984C45.2604 73 44.707 72.7656 44.2383 72.2969C43.7695 71.8542 43.5352 71.3008 43.5352 70.6367C42.0508 72.2122 39.8958 73 37.0703 73C33.9714 73 31.3216 71.8997 29.1211 69.6992C26.9206 67.4987 25.8203 64.849 25.8203 61.75C25.8203 58.651 26.9206 56.0013 29.1211 53.8008C31.3216 51.6003 33.9714 50.5 37.0703 50.5ZM37.0703 55.2852C35.2734 55.2852 33.7435 55.9167 32.4805 57.1797C31.2305 58.4427 30.6055 59.9661 30.6055 61.75C30.6055 63.5469 31.2305 65.0768 32.4805 66.3398C33.7435 67.5898 35.2734 68.2148 37.0703 68.2148C38.8672 68.2148 40.3906 67.5898 41.6406 66.3398C42.9036 65.0768 43.5352 63.5469 43.5352 61.75C43.5352 59.9661 42.9036 58.4427 41.6406 57.1797C40.3776 55.9167 38.8542 55.2852 37.0703 55.2852ZM61.9531 50.5C62.6042 50.5 63.1641 50.7344 63.6328 51.2031C64.0885 51.6719 64.3164 52.2318 64.3164 52.8828V52.9219C64.3164 53.5729 64.0885 54.1263 63.6328 54.582C63.1641 55.0508 62.6042 55.2852 61.9531 55.2852H60.8398C59.7721 55.2852 58.8672 55.6562 58.125 56.3984C57.3958 57.1406 57.0247 58.0456 57.0117 59.1133V70.6367C57.0117 71.3008 56.7773 71.8542 56.3086 72.2969C55.8398 72.7656 55.2865 73 54.6484 73H54.5898C53.9518 73 53.3984 72.7656 52.9297 72.2969C52.4609 71.8542 52.2266 71.3008 52.2266 70.6367V59.1133C52.2526 56.7305 53.0924 54.6992 54.7461 53.0195C56.4258 51.3398 58.457 50.5 60.8398 50.5H61.9531ZM68.9062 42.4922C69.5443 42.4922 70.0977 42.7201 70.5664 43.1758C71.0352 43.6445 71.2695 44.2044 71.2695 44.8555V51.6523C72.2982 50.8841 73.8542 50.5 75.9375 50.5C78.5286 50.5 80.7487 51.4245 82.5977 53.2734C84.4466 55.1224 85.3711 57.349 85.3711 59.9531V70.6367C85.3711 71.3008 85.1367 71.8542 84.668 72.2969C84.2253 72.7656 83.6719 73 83.0078 73H82.9688C82.3177 73 81.7578 72.7656 81.2891 72.2969C80.8203 71.8542 80.5859 71.3008 80.5859 70.6367V59.9531C80.5859 58.6641 80.1367 57.5638 79.2383 56.6523C78.3268 55.7409 77.2266 55.2852 75.9375 55.2852C74.6354 55.2852 73.5286 55.7409 72.6172 56.6523C71.7188 57.5638 71.2695 58.6641 71.2695 59.9531V70.6367C71.2695 71.3008 71.0352 71.8542 70.5664 72.2969C70.0977 72.7656 69.5443 73 68.9062 73H68.8477C68.2096 73 67.6562 72.7656 67.1875 72.2969C66.7188 71.8542 66.4844 71.3008 66.4844 70.6367V44.8555C66.4844 44.2044 66.7188 43.6445 67.1875 43.1758C67.6562 42.7201 68.2096 42.4922 68.8477 42.4922H68.9062ZM94.082 63.5664C94.082 64.8555 94.5312 65.9557 95.4297 66.8672C96.3411 67.7656 97.4479 68.2148 98.75 68.2148C100.039 68.2148 101.139 67.7656 102.051 66.8672C102.949 65.9557 103.398 64.8555 103.398 63.5664V52.8828C103.398 52.2318 103.633 51.6719 104.102 51.2031C104.57 50.7344 105.13 50.5 105.781 50.5H105.82C106.484 50.5 107.038 50.7344 107.48 51.2031C107.949 51.6719 108.184 52.2318 108.184 52.8828V63.5664C108.184 66.1576 107.259 68.3776 105.41 70.2266C103.561 72.0755 101.341 73 98.75 73C96.1458 73 93.9193 72.0755 92.0703 70.2266C90.2214 68.3776 89.2969 66.1576 89.2969 63.5664V52.8828C89.2969 52.2318 89.5312 51.6719 90 51.2031C90.4688 50.7344 91.0221 50.5 91.6602 50.5H91.7188C92.3568 50.5 92.9102 50.7344 93.3789 51.2031C93.8477 51.6719 94.082 52.2318 94.082 52.8828V63.5664ZM123.359 55.3242C121.562 55.3242 120.033 55.9557 118.77 57.2188C117.52 58.4818 116.895 60.0117 116.895 61.8086C116.895 63.5924 117.52 65.1159 118.77 66.3789C120.033 67.6419 121.562 68.2734 123.359 68.2734C125.143 68.2734 126.667 67.6419 127.93 66.3789C129.193 65.1159 129.824 63.5924 129.824 61.8086C129.824 60.0117 129.193 58.4818 127.93 57.2188C126.667 55.9557 125.143 55.3242 123.359 55.3242ZM114.531 42.4922C115.169 42.4922 115.723 42.7201 116.191 43.1758C116.66 43.6445 116.895 44.2044 116.895 44.8555V52.4531C118.366 51.151 120.521 50.5 123.359 50.5C126.458 50.5 129.108 51.6003 131.309 53.8008C133.509 56.0013 134.609 58.651 134.609 61.75C134.609 64.849 133.509 67.4987 131.309 69.6992C129.108 71.8997 126.458 73 123.359 73C120.26 73 117.617 71.9062 115.43 69.7188C113.229 67.5443 112.122 64.9076 112.109 61.8086V44.8555C112.109 44.2044 112.344 43.6445 112.812 43.1758C113.281 42.7201 113.835 42.4922 114.473 42.4922H114.531ZM12.6549 85.11C12.1855 85.11 11.7822 85.0513 11.4449 84.934C11.1149 84.8093 10.8399 84.6517 10.6199 84.461C10.3999 84.263 10.2239 84.0577 10.0919 83.845C9.95988 83.6323 9.86088 83.4307 9.79488 83.24C9.72888 83.042 9.68488 82.8843 9.66288 82.767L9.64087 82.58H10.7409L10.7739 82.734C10.7959 82.8367 10.8399 82.965 10.9059 83.119C10.9792 83.273 11.0855 83.4307 11.2249 83.592C11.3642 83.746 11.5512 83.8743 11.7859 83.977C12.0205 84.0797 12.3175 84.131 12.6769 84.131C13.2195 84.131 13.6485 84.0027 13.9639 83.746C14.2792 83.482 14.4369 83.141 14.4369 82.723C14.4369 82.3637 14.3159 82.085 14.0739 81.887C13.8392 81.689 13.5019 81.535 13.0619 81.425L11.9839 81.161C11.6025 81.0657 11.2469 80.9337 10.9169 80.765C10.5942 80.589 10.3339 80.3617 10.1359 80.083C9.94521 79.797 9.84988 79.4413 9.84988 79.016C9.84988 78.5393 9.96721 78.1323 10.2019 77.795C10.4365 77.4577 10.7555 77.201 11.1589 77.025C11.5622 76.8417 12.0205 76.75 12.5339 76.75C13.0325 76.75 13.4469 76.827 13.7769 76.981C14.1069 77.135 14.3709 77.3257 14.5689 77.553C14.7669 77.773 14.9135 77.9967 15.0089 78.224C15.1042 78.444 15.1665 78.631 15.1959 78.785L15.2399 79.016H14.1839L14.1399 78.818C14.1105 78.686 14.0409 78.5357 13.9309 78.367C13.8209 78.191 13.6522 78.037 13.4249 77.905C13.1975 77.773 12.8895 77.707 12.5009 77.707C11.9729 77.707 11.5732 77.8317 11.3019 78.081C11.0379 78.3303 10.9059 78.6163 10.9059 78.939C10.9059 79.2323 11.0122 79.4707 11.2249 79.654C11.4375 79.83 11.7309 79.9657 12.1049 80.061L13.2709 80.347C13.6889 80.4497 14.0665 80.6 14.4039 80.798C14.7412 80.9887 15.0089 81.238 15.2069 81.546C15.4049 81.8467 15.5039 82.217 15.5039 82.657C15.5039 83.097 15.3939 83.504 15.1739 83.878C14.9612 84.252 14.6422 84.5527 14.2169 84.78C13.7989 85 13.2782 85.11 12.6549 85.11ZM19.5603 85.11C18.937 85.11 18.4126 84.967 17.9873 84.681C17.562 84.3877 17.2393 84.01 17.0193 83.548C16.7993 83.086 16.6893 82.5983 16.6893 82.085C16.6893 81.5643 16.7993 81.0767 17.0193 80.622C17.2393 80.16 17.562 79.786 17.9873 79.5C18.4126 79.2067 18.937 79.06 19.5603 79.06C20.1836 79.06 20.708 79.2067 21.1333 79.5C21.5586 79.786 21.8813 80.16 22.1013 80.622C22.3213 81.0767 22.4313 81.5643 22.4313 82.085C22.4313 82.5983 22.3213 83.086 22.1013 83.548C21.8813 84.01 21.5586 84.3877 21.1333 84.681C20.708 84.967 20.1836 85.11 19.5603 85.11ZM19.5603 84.197C19.9563 84.197 20.2863 84.098 20.5503 83.9C20.8216 83.6947 21.0233 83.4307 21.1553 83.108C21.2946 82.7853 21.3643 82.4443 21.3643 82.085C21.3643 81.7183 21.2946 81.3773 21.1553 81.062C21.0233 80.7393 20.8216 80.479 20.5503 80.281C20.2863 80.0757 19.9563 79.973 19.5603 79.973C19.1716 79.973 18.8416 80.0757 18.5703 80.281C18.299 80.479 18.0936 80.7393 17.9543 81.062C17.8223 81.3773 17.7563 81.7183 17.7563 82.085C17.7563 82.4443 17.8223 82.7853 17.9543 83.108C18.0936 83.4307 18.299 83.6947 18.5703 83.9C18.8416 84.098 19.1716 84.197 19.5603 84.197ZM23.9669 85L23.9779 76.64H25.0119V85H23.9669ZM28.5636 85.11C27.9843 85.11 27.5223 84.9303 27.1776 84.571C26.833 84.2117 26.6606 83.713 26.6606 83.075V79.17H27.7056V83.02C27.7056 83.4013 27.8083 83.6947 28.0136 83.9C28.2263 84.1053 28.505 84.208 28.8496 84.208C29.2016 84.208 29.484 84.1163 29.6966 83.933C29.9093 83.7497 30.0633 83.515 30.1586 83.229C30.254 82.943 30.3016 82.6497 30.3016 82.349V79.17H31.3466V85H30.3016V84.164H30.2356C30.1916 84.252 30.1073 84.373 29.9826 84.527C29.858 84.6737 29.682 84.8093 29.4546 84.934C29.2273 85.0513 28.9303 85.11 28.5636 85.11ZM35.5531 87.893C35.3771 87.893 35.2048 87.882 35.0361 87.86L34.7831 87.827V87.189L35.0361 87.222C35.2048 87.244 35.3624 87.255 35.5091 87.255C35.8244 87.255 36.0371 87.1927 36.1471 87.068C36.2644 86.9433 36.3231 86.8187 36.3231 86.694C36.3231 86.5693 36.2718 86.4593 36.1691 86.364C36.0738 86.2687 35.9308 86.221 35.7401 86.221C35.5568 86.221 35.4064 86.254 35.2891 86.32L35.1241 86.43L34.7171 86.023L35.2891 85.088C34.7391 85.0147 34.2808 84.8277 33.9141 84.527C33.5548 84.2263 33.2834 83.8597 33.1001 83.427C32.9241 82.9943 32.8361 82.547 32.8361 82.085C32.8361 81.711 32.8948 81.348 33.0121 80.996C33.1294 80.6367 33.3054 80.3103 33.5401 80.017C33.7821 79.7237 34.0828 79.4927 34.4421 79.324C34.8014 79.148 35.2231 79.06 35.7071 79.06C36.1764 79.06 36.5651 79.1297 36.8731 79.269C37.1811 79.4083 37.4268 79.5843 37.6101 79.797C37.8008 80.0023 37.9401 80.2113 38.0281 80.424C38.1234 80.6293 38.1858 80.8017 38.2151 80.941L38.2591 81.15H37.2471L37.1921 80.974C37.1554 80.8493 37.0858 80.71 36.9831 80.556C36.8804 80.402 36.7264 80.2663 36.5211 80.149C36.3158 80.0243 36.0444 79.962 35.7071 79.962C35.3038 79.962 34.9628 80.0647 34.6841 80.27C34.4128 80.468 34.2074 80.7283 34.0681 81.051C33.9361 81.3737 33.8701 81.7183 33.8701 82.085C33.8701 82.4517 33.9361 82.7963 34.0681 83.119C34.2074 83.4417 34.4128 83.7057 34.6841 83.911C34.9628 84.109 35.3038 84.208 35.7071 84.208C36.0444 84.208 36.3158 84.1493 36.5211 84.032C36.7264 83.9073 36.8804 83.768 36.9831 83.614C37.0858 83.46 37.1554 83.3243 37.1921 83.207L37.2471 83.02H38.2591L38.2151 83.218C38.1931 83.3427 38.1381 83.504 38.0501 83.702C37.9694 83.8927 37.8484 84.0907 37.6871 84.296C37.5258 84.494 37.3094 84.67 37.0381 84.824C36.7668 84.9707 36.4258 85.0623 36.0151 85.099L35.6521 85.671C35.7474 85.6417 35.8538 85.627 35.9711 85.627C36.3158 85.627 36.5798 85.7333 36.7631 85.946C36.9538 86.1587 37.0491 86.4043 37.0491 86.683C37.0491 86.8737 36.9978 87.0607 36.8951 87.244C36.7924 87.4347 36.6311 87.5887 36.4111 87.706C36.1984 87.8307 35.9124 87.893 35.5531 87.893ZM43.2976 78.202C43.0996 78.202 42.9309 78.1653 42.7916 78.092C42.6596 78.0187 42.5423 77.9343 42.4396 77.839C42.3443 77.7437 42.2526 77.6593 42.1646 77.586C42.0766 77.5127 41.9813 77.476 41.8786 77.476C41.7539 77.476 41.6623 77.5383 41.6036 77.663C41.5523 77.7803 41.5266 77.938 41.5266 78.136H40.8226C40.8226 77.9087 40.8483 77.6887 40.8996 77.476C40.9583 77.256 41.0609 77.0763 41.2076 76.937C41.3543 76.7903 41.5559 76.717 41.8126 76.717C42.0106 76.717 42.1793 76.7537 42.3186 76.827C42.4579 76.9003 42.5753 76.9847 42.6706 77.08C42.7733 77.168 42.8686 77.2487 42.9566 77.322C43.0446 77.3953 43.1363 77.432 43.2316 77.432C43.3489 77.432 43.4333 77.3733 43.4846 77.256C43.5433 77.1387 43.5726 76.9773 43.5726 76.772H44.2766C44.2766 76.9993 44.2473 77.223 44.1886 77.443C44.1373 77.663 44.0383 77.8463 43.8916 77.993C43.7523 78.1323 43.5543 78.202 43.2976 78.202ZM42.5606 85.11C41.9373 85.11 41.4129 84.967 40.9876 84.681C40.5623 84.3877 40.2396 84.01 40.0196 83.548C39.7996 83.086 39.6896 82.5983 39.6896 82.085C39.6896 81.5643 39.7996 81.0767 40.0196 80.622C40.2396 80.16 40.5623 79.786 40.9876 79.5C41.4129 79.2067 41.9373 79.06 42.5606 79.06C43.1839 79.06 43.7083 79.2067 44.1336 79.5C44.5589 79.786 44.8816 80.16 45.1016 80.622C45.3216 81.0767 45.4316 81.5643 45.4316 82.085C45.4316 82.5983 45.3216 83.086 45.1016 83.548C44.8816 84.01 44.5589 84.3877 44.1336 84.681C43.7083 84.967 43.1839 85.11 42.5606 85.11ZM42.5606 84.197C42.9566 84.197 43.2866 84.098 43.5506 83.9C43.8219 83.6947 44.0236 83.4307 44.1556 83.108C44.2949 82.7853 44.3646 82.4443 44.3646 82.085C44.3646 81.7183 44.2949 81.3773 44.1556 81.062C44.0236 80.7393 43.8219 80.479 43.5506 80.281C43.2866 80.0757 42.9566 79.973 42.5606 79.973C42.1719 79.973 41.8419 80.0757 41.5706 80.281C41.2993 80.479 41.0939 80.7393 40.9546 81.062C40.8226 81.3773 40.7566 81.7183 40.7566 82.085C40.7566 82.4443 40.8226 82.7853 40.9546 83.108C41.0939 83.4307 41.2993 83.6947 41.5706 83.9C41.8419 84.098 42.1719 84.197 42.5606 84.197ZM49.5177 85.11C49.041 85.11 48.6267 85.0257 48.2747 84.857C47.93 84.681 47.644 84.4463 47.4167 84.153C47.1967 83.8597 47.0317 83.537 46.9217 83.185C46.8117 82.8257 46.7567 82.459 46.7567 82.085C46.7567 81.7183 46.808 81.3553 46.9107 80.996C47.0207 80.6367 47.1857 80.3103 47.4057 80.017C47.633 79.7237 47.9153 79.4927 48.2527 79.324C48.5973 79.148 49.0043 79.06 49.4737 79.06C49.9723 79.06 50.4123 79.1737 50.7937 79.401C51.175 79.6283 51.4757 79.9657 51.6957 80.413C51.9157 80.8603 52.0257 81.4213 52.0257 82.096V82.404H47.8127C47.8347 82.734 47.9117 83.0383 48.0437 83.317C48.183 83.5883 48.3773 83.8083 48.6267 83.977C48.876 84.1383 49.173 84.219 49.5177 84.219C49.8183 84.219 50.0603 84.1713 50.2437 84.076C50.4343 83.9733 50.5847 83.856 50.6947 83.724C50.8047 83.592 50.878 83.4783 50.9147 83.383L50.9807 83.229H51.9597L51.9047 83.427C51.868 83.5517 51.802 83.7057 51.7067 83.889C51.6113 84.0723 51.472 84.2593 51.2887 84.45C51.1053 84.6333 50.8707 84.791 50.5847 84.923C50.2987 85.0477 49.943 85.11 49.5177 85.11ZM47.8237 81.59H51.0027C50.988 81.2087 50.9073 80.9007 50.7607 80.666C50.614 80.424 50.427 80.2443 50.1997 80.127C49.9723 80.0097 49.7303 79.951 49.4737 79.951C49.0117 79.951 48.634 80.1013 48.3407 80.402C48.0473 80.6953 47.875 81.0913 47.8237 81.59ZM55.5856 85.11C55.1383 85.11 54.768 85.0477 54.4746 84.923C54.1886 84.7983 53.9613 84.6443 53.7926 84.461C53.624 84.2703 53.4993 84.0833 53.4186 83.9C53.338 83.7093 53.2866 83.5517 53.2646 83.427L53.2316 83.24H54.2876L54.3206 83.394C54.35 83.4893 54.405 83.603 54.4856 83.735C54.5736 83.8597 54.7056 83.9733 54.8816 84.076C55.065 84.1713 55.307 84.219 55.6076 84.219C55.9523 84.219 56.22 84.1383 56.4106 83.977C56.6013 83.8083 56.6966 83.603 56.6966 83.361C56.6966 83.1483 56.6196 82.9797 56.4656 82.855C56.319 82.7303 56.1063 82.635 55.8276 82.569L55.0356 82.382C54.7423 82.3087 54.4673 82.2097 54.2106 82.085C53.954 81.9603 53.745 81.7917 53.5836 81.579C53.4296 81.359 53.3526 81.0877 53.3526 80.765C53.3526 80.2663 53.5396 79.8593 53.9136 79.544C54.2876 79.2213 54.7753 79.06 55.3766 79.06C55.78 79.06 56.1136 79.1187 56.3776 79.236C56.6416 79.346 56.8506 79.4853 57.0046 79.654C57.166 79.8227 57.2833 79.9913 57.3566 80.16C57.4373 80.3287 57.4886 80.4717 57.5106 80.589L57.5436 80.754H56.5316L56.4986 80.633C56.4766 80.545 56.4253 80.4497 56.3446 80.347C56.2713 80.237 56.1576 80.1417 56.0036 80.061C55.8496 79.973 55.6443 79.929 55.3876 79.929C55.0356 79.929 54.779 80.0097 54.6176 80.171C54.4563 80.3323 54.3756 80.5083 54.3756 80.699C54.3756 80.8823 54.449 81.0327 54.5956 81.15C54.7496 81.26 54.9476 81.3443 55.1896 81.403L55.9926 81.59C56.4913 81.7073 56.902 81.9017 57.2246 82.173C57.5546 82.437 57.7196 82.8183 57.7196 83.317C57.7196 83.6397 57.6353 83.9403 57.4666 84.219C57.298 84.4903 57.056 84.7067 56.7406 84.868C56.4253 85.0293 56.0403 85.11 55.5856 85.11ZM61.6827 85V76.86H67.0507V77.806H62.7607V80.49H66.5447V81.436H62.7607V85H61.6827ZM69.2157 78.059C69.0177 78.059 68.8527 77.993 68.7207 77.861C68.596 77.729 68.5337 77.5713 68.5337 77.388C68.5337 77.1973 68.596 77.036 68.7207 76.904C68.8527 76.772 69.0177 76.706 69.2157 76.706C69.4063 76.706 69.5677 76.772 69.6997 76.904C69.8317 77.036 69.8977 77.1973 69.8977 77.388C69.8977 77.5713 69.8317 77.729 69.6997 77.861C69.5677 77.993 69.4063 78.059 69.2157 78.059ZM68.6987 79.17H69.7437V85H68.6987V79.17ZM71.4341 79.17H72.4791V80.017H72.5451C72.5964 79.929 72.6807 79.808 72.7981 79.654C72.9227 79.5 73.0987 79.3643 73.3261 79.247C73.5534 79.1223 73.8394 79.06 74.1841 79.06C74.6094 79.06 74.9724 79.159 75.2731 79.357C75.5737 79.5477 75.8011 79.808 75.9551 80.138C76.1164 80.468 76.1971 80.8383 76.1971 81.249V85H75.1521V81.315C75.1521 80.9263 75.0421 80.6037 74.8221 80.347C74.6094 80.0903 74.2977 79.962 73.8871 79.962C73.5571 79.962 73.2894 80.0463 73.0841 80.215C72.8787 80.3763 72.7247 80.5927 72.6221 80.864C72.5267 81.128 72.4791 81.4103 72.4791 81.711V85H71.4341V79.17ZM80.2697 79.06C80.6364 79.06 80.9444 79.1187 81.1937 79.236C81.4431 79.3533 81.6447 79.4927 81.7987 79.654C81.9527 79.808 82.0701 79.9547 82.1507 80.094H82.2167V79.17H83.2617V85H82.2167V84.076H82.1507C82.0701 84.2153 81.9527 84.3657 81.7987 84.527C81.6447 84.6883 81.4431 84.8277 81.1937 84.945C80.9444 85.055 80.6364 85.11 80.2697 85.11C79.8297 85.11 79.4447 85.0257 79.1147 84.857C78.7847 84.681 78.5097 84.45 78.2897 84.164C78.0697 83.8707 77.9047 83.5443 77.7947 83.185C77.6847 82.8257 77.6297 82.459 77.6297 82.085C77.6297 81.711 77.6847 81.3443 77.7947 80.985C77.9047 80.6257 78.0697 80.303 78.2897 80.017C78.5097 79.7237 78.7847 79.4927 79.1147 79.324C79.4447 79.148 79.8297 79.06 80.2697 79.06ZM80.4457 79.951C80.0571 79.951 79.7307 80.0573 79.4667 80.27C79.2027 80.4753 79.0047 80.7393 78.8727 81.062C78.7481 81.3847 78.6857 81.7257 78.6857 82.085C78.6857 82.437 78.7481 82.778 78.8727 83.108C79.0047 83.4307 79.2027 83.6983 79.4667 83.911C79.7307 84.1163 80.0571 84.219 80.4457 84.219C80.8344 84.219 81.1571 84.1163 81.4137 83.911C81.6777 83.6983 81.8721 83.4307 81.9967 83.108C82.1287 82.778 82.1947 82.437 82.1947 82.085C82.1947 81.7257 82.1287 81.3847 81.9967 81.062C81.8721 80.7393 81.6777 80.4753 81.4137 80.27C81.1571 80.0573 80.8344 79.951 80.4457 79.951ZM84.7973 79.17H85.8423V80.017H85.9083C85.9597 79.929 86.044 79.808 86.1613 79.654C86.286 79.5 86.462 79.3643 86.6893 79.247C86.9167 79.1223 87.2027 79.06 87.5473 79.06C87.9727 79.06 88.3357 79.159 88.6363 79.357C88.937 79.5477 89.1643 79.808 89.3183 80.138C89.4797 80.468 89.5603 80.8383 89.5603 81.249V85H88.5153V81.315C88.5153 80.9263 88.4053 80.6037 88.1853 80.347C87.9727 80.0903 87.661 79.962 87.2503 79.962C86.9203 79.962 86.6527 80.0463 86.4473 80.215C86.242 80.3763 86.088 80.5927 85.9853 80.864C85.89 81.128 85.8423 81.4103 85.8423 81.711V85H84.7973V79.17ZM93.864 85.11C93.3873 85.11 92.9693 85.0257 92.61 84.857C92.2507 84.681 91.95 84.45 91.708 84.164C91.4733 83.8707 91.2937 83.5443 91.169 83.185C91.0517 82.8257 90.993 82.459 90.993 82.085C90.993 81.711 91.0517 81.348 91.169 80.996C91.2863 80.6367 91.4623 80.3103 91.697 80.017C91.939 79.7237 92.2397 79.4927 92.599 79.324C92.9583 79.148 93.38 79.06 93.864 79.06C94.3333 79.06 94.722 79.1297 95.03 79.269C95.338 79.4083 95.5837 79.5843 95.767 79.797C95.9577 80.0023 96.097 80.2113 96.185 80.424C96.2803 80.6293 96.3427 80.8017 96.372 80.941L96.416 81.15H95.404L95.349 80.974C95.3123 80.8493 95.2427 80.71 95.14 80.556C95.0373 80.402 94.8833 80.2663 94.678 80.149C94.4727 80.0243 94.2013 79.962 93.864 79.962C93.4607 79.962 93.1197 80.0647 92.841 80.27C92.5697 80.468 92.3643 80.7283 92.225 81.051C92.093 81.3737 92.027 81.7183 92.027 82.085C92.027 82.4517 92.093 82.7963 92.225 83.119C92.3643 83.4417 92.5697 83.7057 92.841 83.911C93.1197 84.109 93.4607 84.208 93.864 84.208C94.2013 84.208 94.4727 84.1493 94.678 84.032C94.8833 83.9073 95.0373 83.768 95.14 83.614C95.2427 83.46 95.3123 83.3243 95.349 83.207L95.404 83.02H96.416L96.372 83.229C96.3427 83.3683 96.2803 83.5443 96.185 83.757C96.097 83.9623 95.9577 84.1713 95.767 84.384C95.5837 84.5893 95.338 84.7617 95.03 84.901C94.722 85.0403 94.3333 85.11 93.864 85.11ZM100.5 85.11C100.023 85.11 99.6091 85.0257 99.2571 84.857C98.9124 84.681 98.6264 84.4463 98.3991 84.153C98.1791 83.8597 98.0141 83.537 97.9041 83.185C97.7941 82.8257 97.7391 82.459 97.7391 82.085C97.7391 81.7183 97.7904 81.3553 97.8931 80.996C98.0031 80.6367 98.1681 80.3103 98.3881 80.017C98.6154 79.7237 98.8978 79.4927 99.2351 79.324C99.5798 79.148 99.9868 79.06 100.456 79.06C100.955 79.06 101.395 79.1737 101.776 79.401C102.157 79.6283 102.458 79.9657 102.678 80.413C102.898 80.8603 103.008 81.4213 103.008 82.096V82.404H98.7951C98.8171 82.734 98.8941 83.0383 99.0261 83.317C99.1654 83.5883 99.3598 83.8083 99.6091 83.977C99.8584 84.1383 100.155 84.219 100.5 84.219C100.801 84.219 101.043 84.1713 101.226 84.076C101.417 83.9733 101.567 83.856 101.677 83.724C101.787 83.592 101.86 83.4783 101.897 83.383L101.963 83.229H102.942L102.887 83.427C102.85 83.5517 102.784 83.7057 102.689 83.889C102.594 84.0723 102.454 84.2593 102.271 84.45C102.088 84.6333 101.853 84.791 101.567 84.923C101.281 85.0477 100.925 85.11 100.5 85.11ZM98.8061 81.59H101.985C101.97 81.2087 101.89 80.9007 101.743 80.666C101.596 80.424 101.409 80.2443 101.182 80.127C100.955 80.0097 100.713 79.951 100.456 79.951C99.9941 79.951 99.6164 80.1013 99.3231 80.402C99.0298 80.6953 98.8574 81.0913 98.8061 81.59ZM105.116 78.059C104.918 78.059 104.753 77.993 104.621 77.861C104.496 77.729 104.434 77.5713 104.434 77.388C104.434 77.1973 104.496 77.036 104.621 76.904C104.753 76.772 104.918 76.706 105.116 76.706C105.307 76.706 105.468 76.772 105.6 76.904C105.732 77.036 105.798 77.1973 105.798 77.388C105.798 77.5713 105.732 77.729 105.6 77.861C105.468 77.993 105.307 78.059 105.116 78.059ZM104.599 79.17H105.644V85H104.599V79.17ZM107.334 79.17H108.379V79.896H108.423C108.548 79.676 108.731 79.4817 108.973 79.313C109.215 79.1443 109.556 79.06 109.996 79.06C110.121 79.06 110.235 79.0673 110.337 79.082L110.491 79.093V80.094L110.315 80.083C110.205 80.0683 110.088 80.061 109.963 80.061C109.457 80.061 109.065 80.2077 108.786 80.501C108.515 80.787 108.379 81.2563 108.379 81.909V85H107.334V79.17ZM113.732 79.06C114.098 79.06 114.406 79.1187 114.656 79.236C114.905 79.3533 115.107 79.4927 115.261 79.654C115.415 79.808 115.532 79.9547 115.613 80.094H115.679V79.17H116.724V85H115.679V84.076H115.613C115.532 84.2153 115.415 84.3657 115.261 84.527C115.107 84.6883 114.905 84.8277 114.656 84.945C114.406 85.055 114.098 85.11 113.732 85.11C113.292 85.11 112.907 85.0257 112.577 84.857C112.247 84.681 111.972 84.45 111.752 84.164C111.532 83.8707 111.367 83.5443 111.257 83.185C111.147 82.8257 111.092 82.459 111.092 82.085C111.092 81.711 111.147 81.3443 111.257 80.985C111.367 80.6257 111.532 80.303 111.752 80.017C111.972 79.7237 112.247 79.4927 112.577 79.324C112.907 79.148 113.292 79.06 113.732 79.06ZM113.908 79.951C113.519 79.951 113.193 80.0573 112.929 80.27C112.665 80.4753 112.467 80.7393 112.335 81.062C112.21 81.3847 112.148 81.7257 112.148 82.085C112.148 82.437 112.21 82.778 112.335 83.108C112.467 83.4307 112.665 83.6983 112.929 83.911C113.193 84.1163 113.519 84.219 113.908 84.219C114.296 84.219 114.619 84.1163 114.876 83.911C115.14 83.6983 115.334 83.4307 115.459 83.108C115.591 82.778 115.657 82.437 115.657 82.085C115.657 81.7257 115.591 81.3847 115.459 81.062C115.334 80.7393 115.14 80.4753 114.876 80.27C114.619 80.0573 114.296 79.951 113.908 79.951ZM120.393 85.11C119.946 85.11 119.576 85.0477 119.282 84.923C118.996 84.7983 118.769 84.6443 118.6 84.461C118.432 84.2703 118.307 84.0833 118.226 83.9C118.146 83.7093 118.094 83.5517 118.072 83.427L118.039 83.24H119.095L119.128 83.394C119.158 83.4893 119.213 83.603 119.293 83.735C119.381 83.8597 119.513 83.9733 119.689 84.076C119.873 84.1713 120.115 84.219 120.415 84.219C120.76 84.219 121.028 84.1383 121.218 83.977C121.409 83.8083 121.504 83.603 121.504 83.361C121.504 83.1483 121.427 82.9797 121.273 82.855C121.127 82.7303 120.914 82.635 120.635 82.569L119.843 82.382C119.55 82.3087 119.275 82.2097 119.018 82.085C118.762 81.9603 118.553 81.7917 118.391 81.579C118.237 81.359 118.16 81.0877 118.16 80.765C118.16 80.2663 118.347 79.8593 118.721 79.544C119.095 79.2213 119.583 79.06 120.184 79.06C120.588 79.06 120.921 79.1187 121.185 79.236C121.449 79.346 121.658 79.4853 121.812 79.654C121.974 79.8227 122.091 79.9913 122.164 80.16C122.245 80.3287 122.296 80.4717 122.318 80.589L122.351 80.754H121.339L121.306 80.633C121.284 80.545 121.233 80.4497 121.152 80.347C121.079 80.237 120.965 80.1417 120.811 80.061C120.657 79.973 120.452 79.929 120.195 79.929C119.843 79.929 119.587 80.0097 119.425 80.171C119.264 80.3323 119.183 80.5083 119.183 80.699C119.183 80.8823 119.257 81.0327 119.403 81.15C119.557 81.26 119.755 81.3443 119.997 81.403L120.8 81.59C121.299 81.7073 121.71 81.9017 122.032 82.173C122.362 82.437 122.527 82.8183 122.527 83.317C122.527 83.6397 122.443 83.9403 122.274 84.219C122.106 84.4903 121.864 84.7067 121.548 84.868C121.233 85.0293 120.848 85.11 120.393 85.11Z" fill="#2F3F72"/>
</svg>
