<svg width="172" height="39" viewBox="0 0 172 39" fill="none" xmlns="http://www.w3.org/2000/svg">
<rect width="172" height="39" rx="19.5" fill="white"/>
<path d="M47.4929 17.7827C47.4588 17.4389 47.3125 17.1719 47.054 16.9815C46.7955 16.7912 46.4446 16.696 46.0014 16.696C45.7003 16.696 45.446 16.7386 45.2386 16.8239C45.0313 16.9062 44.8722 17.0213 44.7614 17.169C44.6534 17.3168 44.5994 17.4844 44.5994 17.6719C44.5938 17.8281 44.6264 17.9645 44.6974 18.081C44.7713 18.1974 44.8722 18.2983 45 18.3835C45.1278 18.4659 45.2756 18.5384 45.4432 18.6009C45.6108 18.6605 45.7898 18.7116 45.9801 18.7543L46.7642 18.9418C47.1449 19.027 47.4943 19.1406 47.8125 19.2827C48.1307 19.4247 48.4063 19.5994 48.6392 19.8068C48.8722 20.0142 49.0526 20.2585 49.1804 20.5398C49.3111 20.821 49.3778 21.1435 49.3807 21.5071C49.3778 22.0412 49.2415 22.5043 48.9716 22.8963C48.7045 23.2855 48.3182 23.5881 47.8125 23.804C47.3097 24.017 46.7031 24.1236 45.9929 24.1236C45.2884 24.1236 44.6747 24.0156 44.152 23.7997C43.6321 23.5838 43.2259 23.2642 42.9332 22.8409C42.6435 22.4148 42.4915 21.8878 42.4773 21.2599H44.2628C44.2827 21.5526 44.3665 21.7969 44.5142 21.9929C44.6648 22.1861 44.8651 22.3324 45.1151 22.4318C45.3679 22.5284 45.6534 22.5767 45.9716 22.5767C46.2841 22.5767 46.5554 22.5312 46.7855 22.4403C47.0185 22.3494 47.1989 22.223 47.3267 22.0611C47.4545 21.8991 47.5185 21.7131 47.5185 21.5028C47.5185 21.3068 47.4602 21.142 47.3438 21.0085C47.2301 20.875 47.0625 20.7614 46.8409 20.6676C46.6222 20.5739 46.3537 20.4886 46.0355 20.4119L45.0852 20.1733C44.3494 19.9943 43.7685 19.7145 43.3423 19.3338C42.9162 18.9531 42.7045 18.4403 42.7074 17.7955C42.7045 17.267 42.8452 16.8054 43.1293 16.4105C43.4162 16.0156 43.8097 15.7074 44.3097 15.4858C44.8097 15.2642 45.3778 15.1534 46.0142 15.1534C46.6619 15.1534 47.2273 15.2642 47.7102 15.4858C48.196 15.7074 48.5739 16.0156 48.8438 16.4105C49.1136 16.8054 49.2528 17.2628 49.2614 17.7827H47.4929ZM52.467 15.2727V24H50.6218V15.2727H52.467ZM53.6527 16.794V15.2727H60.8203V16.794H58.1484V24H56.3246V16.794H53.6527ZM62.0007 24V15.2727H67.8814V16.794H63.8459V18.8736H67.5788V20.3949H63.8459V22.4787H67.8984V24H62.0007ZM75.8714 15.2727V24H74.0263V17.0241H73.9751L71.9766 18.277V16.6406L74.1371 15.2727H75.8714ZM81.3675 24.1918C80.6346 24.1889 80.0039 24.0085 79.4755 23.6506C78.9499 23.2926 78.5451 22.7741 78.261 22.0952C77.9798 21.4162 77.8406 20.5994 77.8434 19.6449C77.8434 18.6932 77.984 17.8821 78.2653 17.2116C78.5494 16.5412 78.9542 16.0312 79.4798 15.6818C80.0082 15.3295 80.6374 15.1534 81.3675 15.1534C82.0977 15.1534 82.7255 15.3295 83.2511 15.6818C83.7795 16.0341 84.1857 16.5455 84.4698 17.2159C84.7539 17.8835 84.8945 18.6932 84.8917 19.6449C84.8917 20.6023 84.7496 21.4205 84.4656 22.0994C84.1843 22.7784 83.7809 23.2969 83.2553 23.6548C82.7298 24.0128 82.1005 24.1918 81.3675 24.1918ZM81.3675 22.6619C81.8675 22.6619 82.2667 22.4105 82.565 21.9077C82.8633 21.4048 83.011 20.6506 83.0082 19.6449C83.0082 18.983 82.94 18.4318 82.8036 17.9915C82.6701 17.5511 82.4798 17.2202 82.2326 16.9986C81.9883 16.777 81.6999 16.6662 81.3675 16.6662C80.8704 16.6662 80.4727 16.9148 80.1744 17.4119C79.8761 17.9091 79.7255 18.6534 79.7227 19.6449C79.7227 20.3153 79.7894 20.875 79.9229 21.3239C80.0593 21.7699 80.2511 22.1051 80.4982 22.3295C80.7454 22.5511 81.0352 22.6619 81.3675 22.6619ZM89.6293 24.1918C88.8963 24.1889 88.2656 24.0085 87.7372 23.6506C87.2116 23.2926 86.8068 22.7741 86.5227 22.0952C86.2415 21.4162 86.1023 20.5994 86.1051 19.6449C86.1051 18.6932 86.2457 17.8821 86.527 17.2116C86.8111 16.5412 87.2159 16.0312 87.7415 15.6818C88.2699 15.3295 88.8991 15.1534 89.6293 15.1534C90.3594 15.1534 90.9872 15.3295 91.5128 15.6818C92.0412 16.0341 92.4474 16.5455 92.7315 17.2159C93.0156 17.8835 93.1563 18.6932 93.1534 19.6449C93.1534 20.6023 93.0114 21.4205 92.7273 22.0994C92.446 22.7784 92.0426 23.2969 91.517 23.6548C90.9915 24.0128 90.3622 24.1918 89.6293 24.1918ZM89.6293 22.6619C90.1293 22.6619 90.5284 22.4105 90.8267 21.9077C91.125 21.4048 91.2727 20.6506 91.2699 19.6449C91.2699 18.983 91.2017 18.4318 91.0653 17.9915C90.9318 17.5511 90.7415 17.2202 90.4943 16.9986C90.25 16.777 89.9616 16.6662 89.6293 16.6662C89.1321 16.6662 88.7344 16.9148 88.4361 17.4119C88.1378 17.9091 87.9872 18.6534 87.9844 19.6449C87.9844 20.3153 88.0511 20.875 88.1847 21.3239C88.321 21.7699 88.5128 22.1051 88.7599 22.3295C89.0071 22.5511 89.2969 22.6619 89.6293 22.6619ZM99.2461 22.3636V21.9034C99.2461 21.554 99.32 21.233 99.4677 20.9403C99.6183 20.6449 99.8356 20.4091 100.12 20.233C100.407 20.054 100.756 19.9645 101.168 19.9645C101.586 19.9645 101.936 20.0526 102.221 20.2287C102.507 20.4048 102.723 20.6406 102.868 20.9361C103.016 21.2287 103.09 21.5511 103.09 21.9034V22.3636C103.09 22.7131 103.016 23.0355 102.868 23.331C102.721 23.6236 102.503 23.858 102.216 24.0341C101.929 24.2131 101.58 24.3026 101.168 24.3026C100.75 24.3026 100.4 24.2131 100.115 24.0341C99.8313 23.858 99.6154 23.6236 99.4677 23.331C99.32 23.0355 99.2461 22.7131 99.2461 22.3636ZM100.486 21.9034V22.3636C100.486 22.5653 100.534 22.7557 100.631 22.9347C100.73 23.1136 100.909 23.2031 101.168 23.2031C101.426 23.2031 101.603 23.1151 101.696 22.9389C101.793 22.7628 101.841 22.571 101.841 22.3636V21.9034C101.841 21.696 101.796 21.5028 101.705 21.3239C101.614 21.1449 101.435 21.0554 101.168 21.0554C100.912 21.0554 100.735 21.1449 100.635 21.3239C100.536 21.5028 100.486 21.696 100.486 21.9034ZM94.7674 17.3693V16.9091C94.7674 16.5568 94.8427 16.2344 94.9933 15.9418C95.1438 15.6463 95.3612 15.4105 95.6452 15.2344C95.9322 15.0582 96.2788 14.9702 96.685 14.9702C97.1055 14.9702 97.4577 15.0582 97.7418 15.2344C98.0259 15.4105 98.2418 15.6463 98.3896 15.9418C98.5373 16.2344 98.6112 16.5568 98.6112 16.9091V17.3693C98.6112 17.7216 98.5359 18.044 98.3853 18.3366C98.2376 18.6293 98.0202 18.8636 97.7333 19.0398C97.4492 19.2131 97.0998 19.2997 96.685 19.2997C96.2702 19.2997 95.9194 19.2116 95.6325 19.0355C95.3484 18.8565 95.1325 18.6222 94.9847 18.3324C94.8398 18.0398 94.7674 17.7187 94.7674 17.3693ZM96.016 16.9091V17.3693C96.016 17.5767 96.0643 17.7685 96.1609 17.9446C96.2603 18.1207 96.435 18.2088 96.685 18.2088C96.9464 18.2088 97.1239 18.1207 97.2177 17.9446C97.3143 17.7685 97.3626 17.5767 97.3626 17.3693V16.9091C97.3626 16.7017 97.3171 16.5085 97.2262 16.3295C97.1353 16.1506 96.9549 16.0611 96.685 16.0611C96.4322 16.0611 96.2575 16.152 96.1609 16.3338C96.0643 16.5156 96.016 16.7074 96.016 16.9091ZM95.3299 24L101.33 15.2727H102.446L96.4464 24H95.3299ZM112.344 17.7827C112.31 17.4389 112.164 17.1719 111.906 16.9815C111.647 16.7912 111.296 16.696 110.853 16.696C110.552 16.696 110.298 16.7386 110.09 16.8239C109.883 16.9062 109.724 17.0213 109.613 17.169C109.505 17.3168 109.451 17.4844 109.451 17.6719C109.445 17.8281 109.478 17.9645 109.549 18.081C109.623 18.1974 109.724 18.2983 109.852 18.3835C109.979 18.4659 110.127 18.5384 110.295 18.6009C110.462 18.6605 110.641 18.7116 110.832 18.7543L111.616 18.9418C111.996 19.027 112.346 19.1406 112.664 19.2827C112.982 19.4247 113.258 19.5994 113.491 19.8068C113.724 20.0142 113.904 20.2585 114.032 20.5398C114.163 20.821 114.229 21.1435 114.232 21.5071C114.229 22.0412 114.093 22.5043 113.823 22.8963C113.556 23.2855 113.17 23.5881 112.664 23.804C112.161 24.017 111.555 24.1236 110.844 24.1236C110.14 24.1236 109.526 24.0156 109.004 23.7997C108.484 23.5838 108.077 23.2642 107.785 22.8409C107.495 22.4148 107.343 21.8878 107.329 21.2599H109.114C109.134 21.5526 109.218 21.7969 109.366 21.9929C109.516 22.1861 109.717 22.3324 109.967 22.4318C110.219 22.5284 110.505 22.5767 110.823 22.5767C111.136 22.5767 111.407 22.5312 111.637 22.4403C111.87 22.3494 112.05 22.223 112.178 22.0611C112.306 21.8991 112.37 21.7131 112.37 21.5028C112.37 21.3068 112.312 21.142 112.195 21.0085C112.082 20.875 111.914 20.7614 111.692 20.6676C111.474 20.5739 111.205 20.4886 110.887 20.4119L109.937 20.1733C109.201 19.9943 108.62 19.7145 108.194 19.3338C107.768 18.9531 107.556 18.4403 107.559 17.7955C107.556 17.267 107.697 16.8054 107.981 16.4105C108.268 16.0156 108.661 15.7074 109.161 15.4858C109.661 15.2642 110.229 15.1534 110.866 15.1534C111.513 15.1534 112.079 15.2642 112.562 15.4858C113.048 15.7074 113.425 16.0156 113.695 16.4105C113.965 16.8054 114.104 17.2628 114.113 17.7827H112.344ZM115.473 24V15.2727H121.354V16.794H117.319V18.8736H121.051V20.3949H117.319V22.4787H121.371V24H115.473ZM128.608 18.0938C128.548 17.8864 128.464 17.7031 128.357 17.544C128.249 17.3821 128.116 17.2457 127.96 17.1349C127.807 17.0213 127.631 16.9347 127.432 16.875C127.236 16.8153 127.018 16.7855 126.78 16.7855C126.334 16.7855 125.942 16.8963 125.604 17.1179C125.268 17.3395 125.007 17.6619 124.82 18.0852C124.632 18.5057 124.538 19.0199 124.538 19.6278C124.538 20.2358 124.631 20.7528 124.815 21.179C125 21.6051 125.261 21.9304 125.599 22.1548C125.938 22.3764 126.337 22.4872 126.797 22.4872C127.214 22.4872 127.571 22.4134 127.866 22.2656C128.165 22.1151 128.392 21.9034 128.548 21.6307C128.707 21.358 128.787 21.0355 128.787 20.6634L129.162 20.7188H126.912V19.3295H130.564V20.429C130.564 21.196 130.402 21.8551 130.078 22.4062C129.754 22.9545 129.308 23.3778 128.74 23.6761C128.172 23.9716 127.521 24.1193 126.788 24.1193C125.97 24.1193 125.251 23.9389 124.632 23.5781C124.013 23.2145 123.53 22.6989 123.183 22.0312C122.839 21.3608 122.668 20.5653 122.668 19.6449C122.668 18.9375 122.77 18.3068 122.974 17.7528C123.182 17.196 123.472 16.7244 123.844 16.3381C124.216 15.9517 124.649 15.6577 125.143 15.456C125.638 15.2543 126.173 15.1534 126.75 15.1534C127.244 15.1534 127.705 15.2259 128.131 15.3707C128.557 15.5128 128.935 15.7145 129.264 15.9759C129.597 16.2372 129.868 16.5483 130.078 16.9091C130.288 17.267 130.423 17.6619 130.483 18.0938H128.608ZM137.341 15.2727H139.186V20.9403C139.186 21.5767 139.034 22.1335 138.73 22.6108C138.429 23.0881 138.007 23.4602 137.464 23.7273C136.922 23.9915 136.289 24.1236 135.568 24.1236C134.843 24.1236 134.21 23.9915 133.667 23.7273C133.125 23.4602 132.703 23.0881 132.402 22.6108C132.1 22.1335 131.95 21.5767 131.95 20.9403V15.2727H133.795V20.7827C133.795 21.1151 133.868 21.4105 134.012 21.669C134.16 21.9276 134.368 22.1307 134.635 22.2784C134.902 22.4261 135.213 22.5 135.568 22.5C135.926 22.5 136.237 22.4261 136.501 22.2784C136.768 22.1307 136.974 21.9276 137.119 21.669C137.267 21.4105 137.341 21.1151 137.341 20.7827V15.2727ZM140.704 24V15.2727H144.147C144.806 15.2727 145.369 15.3906 145.835 15.6264C146.303 15.8594 146.66 16.1903 146.904 16.6193C147.151 17.0455 147.275 17.5469 147.275 18.1236C147.275 18.7031 147.15 19.2017 146.9 19.6193C146.65 20.0341 146.288 20.3523 145.813 20.5739C145.342 20.7955 144.771 20.9062 144.1 20.9062H141.795V19.4233H143.802C144.154 19.4233 144.447 19.375 144.68 19.2784C144.913 19.1818 145.086 19.0369 145.2 18.8438C145.316 18.6506 145.374 18.4105 145.374 18.1236C145.374 17.8338 145.316 17.5895 145.2 17.3906C145.086 17.1918 144.911 17.0412 144.675 16.9389C144.442 16.8338 144.148 16.7812 143.793 16.7812H142.549V24H140.704ZM145.417 20.0284L147.586 24H145.549L143.427 20.0284H145.417ZM156.599 19.6364C156.599 20.5881 156.418 21.3977 156.058 22.0653C155.7 22.733 155.211 23.2429 154.592 23.5952C153.975 23.9446 153.282 24.1193 152.512 24.1193C151.737 24.1193 151.04 23.9432 150.424 23.5909C149.808 23.2386 149.32 22.7287 148.962 22.0611C148.604 21.3935 148.425 20.5852 148.425 19.6364C148.425 18.6847 148.604 17.875 148.962 17.2074C149.32 16.5398 149.808 16.0312 150.424 15.6818C151.04 15.3295 151.737 15.1534 152.512 15.1534C153.282 15.1534 153.975 15.3295 154.592 15.6818C155.211 16.0312 155.7 16.5398 156.058 17.2074C156.418 17.875 156.599 18.6847 156.599 19.6364ZM154.728 19.6364C154.728 19.0199 154.636 18.5 154.451 18.0767C154.269 17.6534 154.012 17.3324 153.68 17.1136C153.347 16.8949 152.958 16.7855 152.512 16.7855C152.066 16.7855 151.677 16.8949 151.344 17.1136C151.012 17.3324 150.754 17.6534 150.569 18.0767C150.387 18.5 150.296 19.0199 150.296 19.6364C150.296 20.2528 150.387 20.7727 150.569 21.196C150.754 21.6193 151.012 21.9403 151.344 22.1591C151.677 22.3778 152.066 22.4872 152.512 22.4872C152.958 22.4872 153.347 22.3778 153.68 22.1591C154.012 21.9403 154.269 21.6193 154.451 21.196C154.636 20.7727 154.728 20.2528 154.728 19.6364Z" fill="#2F3F72"/>
<path d="M18.5423 15.333H32.0068C32.252 15.333 32.4872 15.4307 32.6606 15.6046C32.834 15.7785 32.9314 16.0143 32.9314 16.2602V26.2391C32.9314 26.485 32.834 26.7209 32.6606 26.8948C32.4872 27.0687 32.252 27.1663 32.0068 27.1663H18.5423C18.2971 27.1663 18.0619 27.0686 17.8885 26.8948C17.7151 26.7209 17.6177 26.485 17.6177 26.2391V16.2602C17.6177 16.1385 17.6416 16.0179 17.6881 15.9054C17.7345 15.7929 17.8026 15.6907 17.8885 15.6046C17.9744 15.5185 18.0763 15.4502 18.1885 15.4036C18.3007 15.357 18.4209 15.333 18.5423 15.333Z" fill="white" stroke="#2374E7" stroke-linecap="round" stroke-linejoin="round"/>
<path d="M20.4021 15.3331V13.0666C20.4061 11.6355 20.9212 10.2644 21.8346 9.25405C22.7479 8.24364 23.985 7.67627 25.2746 7.67627C26.5643 7.67627 27.8014 8.24364 28.7147 9.25405C29.6281 10.2644 30.1432 11.6355 30.1472 13.0666V15.3331" fill="white"/>
<path d="M20.4021 15.3331V13.0666C20.4061 11.6355 20.9212 10.2644 21.8346 9.25405C22.7479 8.24364 23.985 7.67627 25.2746 7.67627C26.5643 7.67627 27.8014 8.24364 28.7147 9.25405C29.6281 10.2644 30.1432 11.6355 30.1472 13.0666V15.3331" stroke="#2374E7" stroke-linecap="round" stroke-linejoin="round"/>
<path d="M25.2745 22.9899C26.4278 22.9899 27.3628 22.055 27.3628 20.9017C27.3628 19.7484 26.4278 18.8135 25.2745 18.8135C24.1212 18.8135 23.1863 19.7484 23.1863 20.9017C23.1863 22.055 24.1212 22.9899 25.2745 22.9899Z" fill="white" stroke="#2374E7" stroke-linecap="round" stroke-linejoin="round"/>
</svg>
